<?xml version="1.0" encoding="utf-8"?>
<!-- Generator: Adobe Illustrator 24.0.2, SVG Export Plug-In . SVG Version: 6.00 Build 0)  -->
<svg version="1.1" xmlns="http://www.w3.org/2000/svg" xmlns:xlink="http://www.w3.org/1999/xlink" x="0px" y="0px"
	 viewBox="0 0 24 24" style="enable-background:new 0 0 24 24;" xml:space="preserve">
<style type="text/css">
	.st0{fill:none;}
	.st1{fill:#121331;}
</style>
<g id="bounding_box">
	<rect class="st0" width="24" height="24"/>
</g>
<g id="design">
	<g>
		<path class="st1" d="M19.55,15.72v3.48c0,0.55-0.45,1-1,1s-1-0.45-1-1v-1.11c-1.5,1.36-3.48,2.15-5.55,2.15
			c-4.27,0-7.79-3.2-8.19-7.45c-0.05-0.55,0.36-1.03,0.91-1.09c0.56-0.05,1.03,0.36,1.09,0.91c0.29,3.21,2.96,5.63,6.19,5.63
			c1.54,0,2.98-0.55,4.09-1.52h-1.02c-0.55,0-1-0.44-1-1c0-0.55,0.45-1,1-1h3.48C19.1,14.72,19.55,15.17,19.55,15.72z"/>
		<path class="st1" d="M20.19,11.21c0.05,0.55-0.36,1.03-0.91,1.09h-0.09c-0.51,0-0.95-0.39-1-0.91C17.9,8.18,15.23,5.76,12,5.76
			c-1.54,0-2.98,0.55-4.09,1.52H8.9c0.55,0,1,0.44,1,1c0,0.55-0.45,1-1,1H5.42c-0.55,0-1-0.45-1-1V4.8c0-0.55,0.45-1,1-1s1,0.45,1,1
			v1.14C7.92,4.56,9.91,3.76,12,3.76C16.27,3.76,19.79,6.96,20.19,11.21z"/>
	</g>
</g>
</svg>
